<svg xmlns="http://www.w3.org/2000/svg" xmlns:xlink="http://www.w3.org/1999/xlink" width="120.352" height="80.15" viewBox="0 0 120.352 80.15">
  <defs>
    <clipPath id="clip-path">
      <rect id="Rectangle_2620" data-name="Rectangle 2620" width="120.352" height="80.15" fill="none"/>
    </clipPath>
  </defs>
  <g id="Group_7477" data-name="Group 7477" clip-path="url(#clip-path)">
    <path id="Path_19181" data-name="Path 19181" d="M971.157,180.558a32.04,32.04,0,0,0-.48-3.282c-.208-1.087-.465-2.166-.759-3.238a32.2,32.2,0,0,0-2.419-6.291,16.836,16.836,0,0,0-1.93-2.945,10.115,10.115,0,0,0-1.313-1.331,7.451,7.451,0,0,0-1.7-1.078,5.572,5.572,0,0,0-2.112-.5,5.825,5.825,0,0,0-2.15.341,7.655,7.655,0,0,0-1.783.939,8.907,8.907,0,0,0-1.492,1.283,7.239,7.239,0,0,0-1.159,1.7,6.744,6.744,0,0,0-.615,2,7.957,7.957,0,0,0,.5,3.927,11.529,11.529,0,0,0,1.888,3.173,14.81,14.81,0,0,0,1.222,1.311,16.625,16.625,0,0,0,7.6,4.067,14.772,14.772,0,0,0,3.386.386,12.137,12.137,0,0,0,3.314-.456m0,0a16.809,16.809,0,0,1-6.251-1.336,17.84,17.84,0,0,1-5.187-3.337,14.335,14.335,0,0,1-1.056-1.083,13.083,13.083,0,0,1-.927-1.164,9.724,9.724,0,0,1-1.307-2.525,5.244,5.244,0,0,1-.25-2.52,4.006,4.006,0,0,1,1.057-2.113,5.9,5.9,0,0,1,.982-.86l.134-.092.147-.1q.136-.087.273-.163a4.73,4.73,0,0,1,.544-.257,2.8,2.8,0,0,1,2.131-.005,6.375,6.375,0,0,1,2.152,1.551,13.949,13.949,0,0,1,.974,1.132c.314.4.614.819.9,1.253a44.62,44.62,0,0,1,3.068,5.6c.925,1.958,1.777,3.968,2.616,6.01" transform="translate(-889.674 -155.288)" fill="#040504"/>
    <path id="Path_19182" data-name="Path 19182" d="M306.378,27.05a47.077,47.077,0,0,0,4.783-.9c1.582-.37,3.148-.81,4.7-1.306a47.22,47.22,0,0,0,9.081-3.921,24.705,24.705,0,0,0,4.2-3.005,14.856,14.856,0,0,0,1.874-2,10.94,10.94,0,0,0,1.48-2.552,8.179,8.179,0,0,0,.608-3.126,8.547,8.547,0,0,0-.628-3.133A11.24,11.24,0,0,0,331,4.543a13.069,13.069,0,0,0-1.97-2.111,10.616,10.616,0,0,0-2.559-1.6A9.9,9.9,0,0,0,323.507.05a11.678,11.678,0,0,0-5.729.969,16.921,16.921,0,0,0-4.541,2.956,21.729,21.729,0,0,0-1.849,1.869,24.388,24.388,0,0,0-5.511,11.385,21.681,21.681,0,0,0-.365,4.987,17.807,17.807,0,0,0,.866,4.832m0,0a24.666,24.666,0,0,1,1.587-9.245,26.177,26.177,0,0,1,4.584-7.8,21.015,21.015,0,0,1,1.525-1.613,19.187,19.187,0,0,1,1.652-1.429,14.272,14.272,0,0,1,3.624-2.067,7.7,7.7,0,0,1,3.681-.516A5.879,5.879,0,0,1,326.191,5.8a8.672,8.672,0,0,1,1.32,1.389l.143.191.15.21q.135.194.255.39a6.914,6.914,0,0,1,.409.783,4.107,4.107,0,0,1,.135,3.125,9.355,9.355,0,0,1-2.147,3.247,20.5,20.5,0,0,1-1.6,1.5c-.567.484-1.165.949-1.784,1.4a65.477,65.477,0,0,1-8.035,4.831c-2.816,1.473-5.713,2.841-8.657,4.193" transform="translate(-225.215 -0.003)" fill="#040504"/>
    <rect id="Rectangle_2619" data-name="Rectangle 2619" width="5.709" height="40.032" transform="translate(84.731 64.661) rotate(-179.56)" fill="#040504"/>
    <path id="Path_19183" data-name="Path 19183" d="M1028.45,598.354l23.6.181-.106,13.889-24.9-.191.1-12.587a1.3,1.3,0,0,1,1.311-1.291" transform="translate(-973.58 -573.955)" fill="#040504"/>
    <path id="Path_19184" data-name="Path 19184" d="M1051.971,1015.745l-20.628-.158a1.3,1.3,0,0,1-1.289-1.311l.174-22.727,21.927.168Z" transform="translate(-973.806 -951.115)" fill="#040504"/>
    <path id="Path_19185" data-name="Path 19185" d="M258.06,605.695l-.1,12.587-24.9-.191.106-13.889,23.6.181a1.3,1.3,0,0,1,1.292,1.312" transform="translate(-147.212 -579.564)" fill="#040504"/>
    <path id="Path_19186" data-name="Path 19186" d="M330.723,1019.979a1.3,1.3,0,0,1-1.311,1.291l-20.628-.158.185-24.029,21.929.168Z" transform="translate(-223.137 -956.425)" fill="#040504"/>
    <path id="Path_19187" data-name="Path 19187" d="M0,1060.619q6.782-2.38,13.565-4.763c2.6-1.118,17.13-7.622,27.97-7.4a59.045,59.045,0,0,1,12.223,2.2c1.914.609,3.916,1.72,5.874,2.578,2.538,1.174,9.082,2.071,12.032,1.887,4.831-.3,12.292.7,13.845,3.781,1.339,2.65-.948,5.156-2.5,5.959-4.812,2.483-16.41.128-22.5-1,0,.027,0,.054-.006.082a8.3,8.3,0,0,0,2.7,1.228l4.358,1.046a45.811,45.811,0,0,1,4.786,1.821c1.824.216,2.449-.156,5.477.2s3.744.887,5.617,1.108c4.085-2.222,10.951-2,11.552-1.95a18.307,18.307,0,0,1,9.2-1.5c1.745-.415,9.209-1.135,14.131,2.087,1.139,1.164,2.3,2.9,1.984,4.2s-9.061.467-11.5.316c1.006.4,2.789.949,3.623,2.013s2.071,3.854,1.573,4.452-2.3.616-3.676.585c-1.141-.029-14.481.329-16.633.674-2.53.406-11.961,1.634-12.917,1.581-1.319.325-9.669.6-12.381,1.133-2.853.556-4.859,2.394-8.156,2.741-1.453.155-2.361-.651-3.467-.881a86.791,86.791,0,0,1-9.526-2.326c-8.318-2.787-19.965-5.072-28.876-3.455l-4.466,1.092c-1.606.435-7.93,3.1-13.9,5.728Z" transform="translate(0 -1005.701)" fill="#be924f" fill-rule="evenodd"/>
  </g>
</svg>
