<svg id="Group_7482" data-name="Group 7482" xmlns="http://www.w3.org/2000/svg" xmlns:xlink="http://www.w3.org/1999/xlink" width="121.854" height="60.972" viewBox="0 0 121.854 60.972">
  <defs>
    <clipPath id="clip-path">
      <rect id="Rectangle_2621" data-name="Rectangle 2621" width="121.854" height="60.972" fill="none"/>
    </clipPath>
  </defs>
  <g id="Group_7480" data-name="Group 7480" transform="translate(0 0)" clip-path="url(#clip-path)">
    <path id="Path_19188" data-name="Path 19188" d="M47.589,46.811c5.65-.04,13.236-2.341,20.449-6.006A79.578,79.578,0,0,0,89.253,24.958c1.062-1.1,1.079-1.974.031-3.048-8.359-8.561-17.9-15.335-29.291-19.286A44,44,0,0,0,40.455.256,54.3,54.3,0,0,0,20.787,6.662,80.555,80.555,0,0,0,.964,21.708c-1.29,1.329-1.291,2.1.028,3.442C9.144,33.433,18.423,40.024,29.43,43.988c5.048,1.818,10.253,2.842,18.159,2.823m-2.574-3.6A19.8,19.8,0,1,1,64.824,23.43,19.889,19.889,0,0,1,45.015,43.214M4.352,23.417A73.541,73.541,0,0,1,27.791,7.431a23.813,23.813,0,0,0,0,31.992A74.081,74.081,0,0,1,4.352,23.417m57.931,16.06c8.283-10.737,8.291-21.381,0-32.131A75.181,75.181,0,0,1,85.7,23.422,75.393,75.393,0,0,1,62.283,39.477" transform="translate(31.795 0.003)" fill="#fff"/>
    <path id="Path_19189" data-name="Path 19189" d="M879.778,361.217a8.993,8.993,0,1,0,8.872-9.068,8.981,8.981,0,0,0-8.872,9.068m8.953-5.472a5.4,5.4,0,1,1-5.356,5.415,5.468,5.468,0,0,1,5.356-5.415" transform="translate(-811.945 -337.724)" fill="#fff"/>
    <path id="Path_19190" data-name="Path 19190" d="M23.479,583.663,37.1,578.879c2.609-1.123,17.207-7.657,28.1-7.429a59.3,59.3,0,0,1,12.278,2.215c1.922.611,3.933,1.728,5.9,2.589,2.549,1.179,9.123,2.08,12.086,1.9,4.853-.3,12.348.7,13.907,3.8,1.345,2.661-.953,5.179-2.513,5.986-4.833,2.495-16.484.128-22.6-1,0,.027,0,.055-.006.082a8.328,8.328,0,0,0,2.708,1.233l4.378,1.051a46.034,46.034,0,0,1,4.808,1.829c1.833.217,2.46-.157,5.5.2s3.761.891,5.642,1.113c4.1-2.232,11-2.012,11.6-1.959a18.389,18.389,0,0,1,9.242-1.5c1.752-.416,9.25-1.141,14.194,2.1,1.144,1.169,2.308,2.908,1.993,4.217s-9.1.469-11.554.318c1.011.4,2.8.953,3.64,2.022s2.08,3.871,1.58,4.472-2.309.619-3.692.588c-1.146-.029-14.546.331-16.708.677-2.541.408-12.014,1.641-12.975,1.588-1.325.326-9.713.607-12.437,1.138-2.865.558-4.881,2.4-8.193,2.753-1.459.156-2.371-.654-3.483-.885a87.126,87.126,0,0,1-9.569-2.337c-8.356-2.8-20.055-5.094-29.005-3.471l-4.486,1.1c-1.613.437-7.965,3.118-13.958,5.754Z" transform="translate(-23.479 -548.037)" fill="#be924f" fill-rule="evenodd"/>
  </g>
</svg>
