<svg xmlns="http://www.w3.org/2000/svg" width="331.526" height="94.267" viewBox="0 0 331.526 94.267">
  <g id="Group_205" data-name="Group 205" transform="translate(-463 -140.589)">
    <g id="Group_203" data-name="Group 203" transform="translate(463 140.589)">
      <path id="Path_335" data-name="Path 335" d="M545.02,164.3a11.6,11.6,0,0,0-.4,1.309c-.4,2.2-.811,4.394-1.13,6.6-.278,1.919-.49,3.851-.635,5.785a113.06,113.06,0,0,0-.345,12.583c.1,2.717.265,5.434.447,8.149a81.159,81.159,0,0,0,1.526,11.023c.064.309.144.616.229.92a.417.417,0,0,1-.312.581c-.262.083-.522.171-.781.262-1.191.42-2.38.854-3.576,1.261a75.041,75.041,0,0,0-7.9,3.363,104.75,104.75,0,0,0-9.755,5.231c-2.538,1.546-5.057,3.133-7.515,4.8-2.056,1.4-4.051,2.891-6,4.436-1.468,1.164-2.818,2.475-4.22,3.722-.19.167-.375.336-.579.52a.808.808,0,0,1-.222-.11,68.61,68.61,0,0,0-5.557-4.789,93.674,93.674,0,0,0-8.868-6.3c-1.2-.752-2.421-1.455-3.629-2.184-.883-.534-1.751-1.1-2.647-1.607-.989-.561-2.012-1.062-3-1.617a61.755,61.755,0,0,0-5.963-2.766c-1.473-.631-2.945-1.27-4.45-1.818-1.859-.68-3.756-1.26-5.63-1.905a7.975,7.975,0,0,1-1.036-.533c.046-.261.076-.484.127-.7a87.344,87.344,0,0,0,1.569-9.417c.41-3.353.638-6.72.745-10.092a120.66,120.66,0,0,0-.472-15.172c-.144-1.512-.227-3.035-.486-4.528-.335-1.928-.819-3.831-1.24-5.745-.1-.452-.2-.9-.312-1.415a6.8,6.8,0,0,1,.71-.294,85.8,85.8,0,0,0,16.063-6.584,129.737,129.737,0,0,0,11.289-6.623,107.17,107.17,0,0,0,8.89-6.482c1.385-1.134,2.7-2.352,4.107-3.584a3.354,3.354,0,0,1,.37.288,80.739,80.739,0,0,0,11.774,9.152q4.5,3.009,9.255,5.594c2.578,1.394,5.191,2.72,7.788,4.077.074.04.154.07.227.113a31,31,0,0,0,4.263,1.905c1.376.531,2.761,1.036,4.152,1.526.835.295,1.687.539,2.529.812C544.61,164.118,544.795,164.209,545.02,164.3Zm-6.784,42.8c-.027-.319-.033-.569-.071-.814-.091-.581-.218-1.158-.3-1.743-.346-2.548-.774-5.09-.992-7.649-.231-2.709-.336-5.433-.352-8.152-.014-2.485.127-4.974.269-7.458q.184-3.187.536-6.363c.178-1.633.477-3.253.714-4.88a1.31,1.31,0,0,0-.066-.963c-.094,0-.164-.021-.215,0-1.228.553-2.486,1.054-3.673,1.688a8.147,8.147,0,0,0-2.516,1.885,3.811,3.811,0,0,0-1.141,1.855c-.208,1.525-.5,3.044-.607,4.575-.18,2.608-.3,5.222-.336,7.835a64.163,64.163,0,0,0,.3,8.088c.021.192,0,.389,0,.674-.254-.165-.413-.261-.563-.37q-1.633-1.195-3.262-2.4c-.967-.712-1.931-1.431-2.9-2.137a1.17,1.17,0,0,1-.567-1.119c.034-.4.024-.8.023-1.2a56.839,56.839,0,0,1,.958-11.452,2.673,2.673,0,0,0,0-.5,1.191,1.191,0,0,0-.215-.143c-1.307-.526-2.619-1.042-3.924-1.574-.955-.389-1.922-.759-2.848-1.21a49.939,49.939,0,0,1-9.22-5.484c-.943-.742-1.864-1.515-2.8-2.271-.158-.128-.323-.249-.43-.332-.93.767-1.787,1.515-2.687,2.2-.919.7-1.872,1.361-2.827,2.015-.539.368-1.119.674-1.669,1.027a41.4,41.4,0,0,1-4.369,2.533c-.641.311-1.278.631-1.955.967.167.141.288.258.422.355.757.539,1.518,1.069,2.271,1.609q4.993,3.569,9.98,7.144c2.583,1.858,5.147,3.747,7.733,5.6,2.485,1.78,4.993,3.529,7.486,5.3,3.68,2.612,7.351,5.235,11.038,7.835.948.668,1.914,1.317,2.92,1.888,1.741.987,3.519,1.908,5.283,2.854C537.829,206.91,538,206.984,538.236,207.1Zm-68.578-39.274a3.7,3.7,0,0,0,0,.5q.357,2.216.722,4.431c.184,1.123.417,2.24.536,3.37.207,1.971.393,3.947.494,5.925a110.212,110.212,0,0,1-.469,18.387,27.409,27.409,0,0,1-.791,4.862,1.567,1.567,0,0,0,.051.5c.635-.218,1.21-.408,1.778-.613a13.881,13.881,0,0,0,4.6-2.843,2.821,2.821,0,0,0,.957-1.865c.218-2.076.509-4.145.684-6.224a70.959,70.959,0,0,0,.218-10.178c-.067-1.136-.147-2.271-.214-3.407-.016-.284,0-.569,0-.96.289.182.5.3.7.445q2.471,1.712,4.939,3.427c.45.312.909.614,1.361.923a1.155,1.155,0,0,1,.544,1.069c-.026.842,0,1.687-.006,2.531a46.3,46.3,0,0,1-1.03,10.7c.073.034.16.085.254.12a43.611,43.611,0,0,1,7.241,3.3,6.917,6.917,0,0,1,2.261,1.46c.047.06.144.081.219.117.738.356,1.51.654,2.209,1.074a47.583,47.583,0,0,1,6.757,4.89,4.523,4.523,0,0,0,.412.285,58.585,58.585,0,0,1,13.231-8.687c-.385-.312-.68-.573-.995-.805-1.475-1.09-2.961-2.166-4.434-3.259-1-.74-1.981-1.5-2.979-2.246-.9-.667-1.8-1.317-2.707-1.973-.663-.483-1.319-.976-1.992-1.442-.97-.674-1.959-1.319-2.93-1.992-1.074-.744-2.137-1.508-3.209-2.257-1.589-1.111-3.2-2.2-4.769-3.333-2.033-1.47-4.03-2.994-6.057-4.474-1.718-1.255-3.464-2.475-5.189-3.722-1.368-.986-2.682-2.056-4.1-2.971-2.546-1.65-5.15-3.213-7.733-4.808A5.207,5.207,0,0,0,469.658,167.827Zm33.39,58.482c.107-.4.208-.694.264-1a16.427,16.427,0,0,0,.217-4.913,7.689,7.689,0,0,0-.775-2.593,2.07,2.07,0,0,0-.531-.691c-1.431-1.114-2.864-2.226-4.326-3.3-1.171-.861-2.37-1.683-3.579-2.491-.936-.624-1.922-1.173-2.854-1.8-.889-.6-1.9-.962-2.807-1.53a18.583,18.583,0,0,0-2.9-1.372c-2.19-.885-4.4-1.726-6.6-2.573a1.106,1.106,0,0,0-.55-.074,11.456,11.456,0,0,0-4.208,1.285c-.972.581-1.871,1.288-2.794,1.951-.248.178-.47.393-.744.624.194.073.329.125.466.174.875.308,1.773.56,2.619.933q3.238,1.43,6.433,2.955c1.024.487,1.995,1.084,3,1.607,1.064.554,2.163,1.043,3.213,1.621q4.516,2.492,8.776,5.406c2.474,1.688,4.88,3.47,7.179,5.393C502.674,226.03,502.811,226.127,503.049,226.309Zm-32.065-58.918a3.738,3.738,0,0,0,.331.341c.863.673,1.7,1.381,2.606,2a11.088,11.088,0,0,0,4.042,1.727,2.428,2.428,0,0,0,1.485-.1c.973-.4,1.959-.775,2.93-1.183a85.007,85.007,0,0,0,10.282-5.281q2.285-1.351,4.466-2.874c1.621-1.134,3.187-2.35,4.758-3.556a3.279,3.279,0,0,0,.824-.942,6.37,6.37,0,0,0,.768-2.588,15.96,15.96,0,0,0-.339-5.464,1.768,1.768,0,0,0-.143-.309A110.433,110.433,0,0,1,470.984,167.391Zm34.106-18.228a12.23,12.23,0,0,0-.483,1.871,12.67,12.67,0,0,0,.5,5.926,3.572,3.572,0,0,0,1.2,1.649c1.556,1.157,3.071,2.381,4.695,3.433q3.845,2.492,7.817,4.782a64.191,64.191,0,0,0,10.1,4.778,1.57,1.57,0,0,0,.855.091,18.907,18.907,0,0,0,2.11-.654,14.187,14.187,0,0,0,3.826-2.315c.452-.362.882-.749,1.358-1.157a2.4,2.4,0,0,0-.359-.274c-.418-.194-.836-.385-1.264-.557-2.01-.814-4.037-1.593-6.031-2.441-1.589-.677-3.146-1.428-4.709-2.163a24.268,24.268,0,0,1-3-1.49c-2.082-1.358-4.326-2.437-6.373-3.861-2.82-1.962-5.675-3.871-8.338-6.049C506.385,150.227,505.77,149.721,505.089,149.162Zm32.192,58.695a9.465,9.465,0,0,0-1.419-1.2,13.455,13.455,0,0,0-5.87-2.666,2.466,2.466,0,0,0-1.366.1c-1.237.484-2.511.888-3.706,1.458-2.434,1.161-4.856,2.352-7.224,3.639-2,1.087-3.948,2.271-5.852,3.514a53.046,53.046,0,0,0-5.936,4.4,2.406,2.406,0,0,0-.688.881,9.364,9.364,0,0,0-.687,2.355,15.016,15.016,0,0,0,.353,5.4c.041.151.1.3.171.513A106.107,106.107,0,0,1,537.281,207.857Z" transform="translate(-463 -140.589)" fill="#fff"/>
    </g>
    <g id="Group_204" data-name="Group 204" transform="translate(562.404 153.269)">
      <text id="spydernet" transform="translate(0 45)" fill="#fff" font-size="58" font-family="Helvetica" letter-spacing="-0.05em"><tspan x="0" y="0">spydernet</tspan></text>
      <text id="resolving_challenges" data-name="resolving challenges" transform="translate(77.121 61.75)" fill="#fff" font-size="17" font-family="Helvetica"><tspan x="0" y="0">resolving challenges</tspan></text>
    </g>
  </g>
</svg>
